PathFileType	4	(X/Y/Z)	marker.trc
DataRate	CameraRate	NumFrames	NumMarkers	Units	OrigDataRate	OrigDataStartFrame	OrigNumFrames
128	128	12	6	m	128	481	3845
Frame#	Time	US29-1	US29-2	US29-3	US30-1	US30-2	US30-3	
		X1	Y1	Z1	X2	Y2	Z2	X3	Y3	Z3	X4	Y4	Z4	X5	Y5	Z5	X6	Y6	Z6	

480	3.757812	-0.165647372603416	0.0721064731478691	0.122732385993004	-0.138603076338768	0.095769040286541	0.104378215968609	-0.17056904733181	0.0942241027951241	0.124831400811672	-0.206205531954765	0.090201199054718	0.0556949339807034	-nan	-nan	-nan	-0.21544685959816	0.100241728127003	0.0777794793248177	
481	3.765625	-0.165696114301682	0.0720955207943916	0.122692711651325	-0.138623148202896	0.0957844331860542	0.104363188147545	-0.170577764511108	0.0942005962133408	0.124821752309799	-0.206240251660347	0.0901636779308319	0.0557032823562622	-nan	-nan	-nan	-0.215443089604378	0.100200206041336	0.0777396112680435	
482	3.773437	-0.165739864110947	0.0721113309264183	0.122680082917213	-0.138683706521988	0.0957502797245979	0.104336559772491	-0.17062059044838	0.0942084044218063	0.124772675335407	-0.206304609775543	0.0901424512267113	0.055667981505394	-nan	-nan	-nan	-0.215579494833946	0.100222714245319	0.0777045115828514	
483	3.78125	-0.165730655193329	0.0720966383814812	0.122665032744408	-0.138689428567886	0.0957931652665138	0.104321673512459	-0.170626580715179	0.0942062959074974	0.124777100980282	-0.206334143877029	0.0901350453495979	0.0556720532476902	-nan	-nan	-nan	-0.215532496571541	0.100165717303753	0.0777405202388763	
484	3.789062	-0.165790930390358	0.0720929354429245	0.122616589069366	-0.138729363679886	0.0958111137151718	0.10431082546711	-0.170655533671379	0.0942013189196587	0.124734453856945	-0.206325113773346	0.0900847017765045	0.055658083409071	-nan	-nan	-nan	-0.215625047683716	0.10008691996336	0.0777709633111954	
485	3.796875	-0.165736526250839	0.0720865204930305	0.122637487947941	-0.138707876205444	0.0957068800926208	0.104264713823795	-0.170669704675674	0.0942105799913406	0.124697931110859	-0.206358924508095	0.0900792703032494	0.0556478686630726	-nan	-nan	-nan	-0.21567340195179	0.10011463612318	0.0777497738599777	
486	3.804687	-0.165800243616104	0.0720674693584442	0.122571185231209	-0.138762012124062	0.0956787914037704	0.104209460318089	-0.170678839087486	0.094187930226326	0.124669075012207	-0.206409022212029	0.0900849252939224	0.0556240975856781	-nan	-nan	-nan	-0.21561062335968	0.100131809711456	0.0776782631874084	
487	3.8125	-0.165790051221848	0.0720614045858383	0.122553259134293	-0.138814046978951	0.0957646146416664	0.104191705584526	-0.17070309817791	0.0941750705242157	0.124643668532372	-0.206434324383736	0.0900398939847946	0.0555783584713936	-nan	-nan	-nan	-0.215745076537132	0.100042521953583	0.0777429863810539	
488	3.820312	-0.165828660130501	0.0720392093062401	0.122528858482838	-0.138808578252792	0.0956616625189781	0.104129016399384	-0.170704334974289	0.0941749662160873	0.124610908329487	-0.206425905227661	0.0900197699666023	0.0555641129612923	-nan	-nan	-nan	-0.215788900852203	0.10000429302454	0.0777153149247169	
489	3.828125	-0.165876835584641	0.0720053315162659	0.122471883893013	-0.138838961720467	0.0956048369407654	0.104087851941586	-0.170749291777611	0.0941434651613235	0.124553136527538	-0.206515520811081	0.0899830162525177	0.0555250123143196	-nan	-nan	-nan	-0.215819239616394	0.0999481230974197	0.077707976102829	
490	3.835937	-0.165885359048843	0.0719871520996094	0.122454158961773	-0.138858944177628	0.0956083685159683	0.104018427431583	-0.170728534460068	0.0941405668854713	0.124506026506424	-0.206535905599594	0.0899418070912361	0.0555009096860886	-nan	-nan	-nan	-0.215840458869934	0.0998424217104912	0.077705442905426	
491	3.84375	-0.165810480713844	0.0719760581851006	0.122447282075882	-0.138839215040207	0.095582403242588	0.103979475796223	-0.170756727457047	0.0941122323274612	0.124483078718185	-0.206947416067123	0.0899702534079552	0.0555969141423702	-nan	-nan	-nan	-0.216193944215775	0.0994561836123466	0.0779202803969383	
